<svg xmlns="http://www.w3.org/2000/svg" xmlns:xlink="http://www.w3.org/1999/xlink" width="1080" zoomAndPan="magnify" viewBox="0 0 810 809.999993" height="1080" preserveAspectRatio="xMidYMid meet" version="1.0"><defs><clipPath id="15286f203b"><path d="M 63.105469 405 L 809 405 L 809 787.5 L 63.105469 787.5 Z M 63.105469 405 " clip-rule="nonzero"/></clipPath></defs><path fill="#ffffff" d="M 404.46875 0.773438 C 406.9375 0.773438 409.402344 1.714844 411.285156 3.597656 C 415.050781 7.359375 415.050781 13.464844 411.285156 17.230469 L 24.097656 404.421875 L 411.285156 791.613281 C 415.050781 795.378906 415.050781 801.480469 411.285156 805.246094 C 407.519531 809.011719 401.417969 809.011719 397.652344 805.246094 L 3.644531 411.238281 C -0.121094 407.472656 -0.121094 401.367188 3.644531 397.605469 L 397.652344 3.597656 C 399.535156 1.714844 402.003906 0.773438 404.46875 0.773438 Z M 404.46875 0.773438 " fill-opacity="1" fill-rule="nonzero"/><g clip-path="url(#15286f203b)"><path fill="#ffffff" d="M 63.816406 414.824219 C 63.816406 412.550781 64.683594 410.273438 66.421875 408.539062 C 69.890625 405.066406 75.519531 405.066406 78.988281 408.539062 L 436.015625 765.5625 L 793.039062 408.539062 C 796.511719 405.066406 802.140625 405.066406 805.613281 408.539062 C 809.082031 412.011719 809.082031 417.640625 805.613281 421.109375 L 442.300781 784.417969 C 438.828125 787.890625 433.199219 787.890625 429.726562 784.417969 L 66.421875 421.109375 C 64.683594 419.375 63.816406 417.101562 63.816406 414.824219 Z M 63.816406 414.824219 " fill-opacity="1" fill-rule="nonzero"/></g></svg>