<svg xmlns="http://www.w3.org/2000/svg" xmlns:xlink="http://www.w3.org/1999/xlink" width="1080" zoomAndPan="magnify" viewBox="0 0 810 809.999993" height="1080" preserveAspectRatio="xMidYMid meet" version="1.0"><defs><clipPath id="5d726a0d60"><path d="M 63.105469 405 L 809 405 L 809 787 L 63.105469 787 Z M 63.105469 405 " clip-rule="nonzero"/></clipPath></defs><path fill="#37485d" d="M 404.460938 0.773438 C 406.929688 0.773438 409.398438 1.714844 411.28125 3.597656 C 415.050781 7.359375 415.050781 13.464844 411.28125 17.230469 L 23.742188 404.421875 L 411.28125 791.613281 C 415.050781 795.378906 415.050781 801.480469 411.28125 805.246094 C 407.511719 809.011719 401.40625 809.011719 397.636719 805.246094 L 3.273438 411.238281 C -0.496094 407.472656 -0.496094 401.367188 3.273438 397.605469 L 397.636719 3.597656 C 399.519531 1.714844 401.992188 0.773438 404.460938 0.773438 Z M 404.460938 0.773438 " fill-opacity="1" fill-rule="nonzero"/><g clip-path="url(#5d726a0d60)"><path fill="#37485d" d="M 63.816406 414.816406 C 63.816406 412.546875 64.683594 410.269531 66.421875 408.539062 C 69.890625 405.066406 75.523438 405.066406 78.992188 408.539062 L 436.074219 765.296875 L 793.15625 408.539062 C 796.625 405.066406 802.253906 405.066406 805.726562 408.539062 C 809.199219 412.007812 809.199219 417.628906 805.726562 421.097656 L 442.359375 784.140625 C 438.886719 787.609375 433.257812 787.609375 429.785156 784.140625 L 66.421875 421.097656 C 64.683594 419.367188 63.816406 417.089844 63.816406 414.816406 Z M 63.816406 414.816406 " fill-opacity="1" fill-rule="nonzero"/></g></svg>